<svg width="854" height="242" viewBox="0 0 854 242" fill="none" xmlns="http://www.w3.org/2000/svg">
<path d="M510.615 147.202H446.712V126.809H510.615V147.202ZM519.722 192.814H446.712C443.91 192.814 440.848 192.321 437.527 191.335C434.206 190.349 431.119 188.741 428.265 186.509C425.462 184.226 423.101 181.294 421.182 177.714C419.313 174.081 418.379 169.645 418.379 164.404V91.394C418.379 89.993 418.639 88.6697 419.158 87.4244C419.677 86.179 420.377 85.0893 421.259 84.1553C422.193 83.2212 423.283 82.4948 424.528 81.9759C425.774 81.457 427.123 81.1975 428.576 81.1975H519.722V101.435H438.617V164.404C438.617 167.05 439.317 169.074 440.718 170.475C442.119 171.876 444.169 172.577 446.867 172.577H519.722V192.814ZM628.458 164.404C628.458 167.881 628.017 171.02 627.135 173.822C626.253 176.572 625.085 179.011 623.632 181.139C622.179 183.214 620.493 185.004 618.573 186.509C616.653 187.962 614.629 189.156 612.502 190.09C610.426 191.024 608.299 191.724 606.119 192.191C603.992 192.606 601.968 192.814 600.048 192.814H563.543C560.066 192.814 556.953 192.373 554.203 191.491C551.453 190.609 549.014 189.441 546.886 187.988C544.811 186.483 543.02 184.771 541.516 182.851C540.063 180.931 538.869 178.933 537.935 176.858C537.001 174.73 536.301 172.603 535.834 170.475C535.418 168.296 535.211 166.272 535.211 164.404V137.006C535.211 131.817 536.145 127.432 538.013 123.852C539.933 120.219 542.294 117.287 545.096 115.056C547.95 112.773 551.037 111.138 554.358 110.152C557.679 109.166 560.741 108.674 563.543 108.674H600.048V128.911H563.699C561 128.911 558.951 129.611 557.55 131.012C556.149 132.362 555.448 134.359 555.448 137.006V164.248C555.448 166.998 556.123 169.074 557.472 170.475C558.873 171.876 560.897 172.577 563.543 172.577H600.048C602.798 172.577 604.848 171.876 606.197 170.475C607.546 169.074 608.221 167.05 608.221 164.404V73.1026H628.458V164.404ZM739.296 200.909C739.296 204.386 738.855 207.499 737.973 210.249C737.091 213.051 735.923 215.49 734.47 217.566C733.017 219.693 731.331 221.483 729.411 222.936C727.491 224.441 725.467 225.661 723.34 226.595C721.264 227.529 719.137 228.203 716.957 228.618C714.83 229.085 712.806 229.319 710.886 229.319H674.381V209.082H710.886C713.636 209.082 715.686 208.381 717.035 206.98C718.384 205.579 719.059 203.555 719.059 200.909V137.006C719.059 134.359 718.384 132.362 717.035 131.012C715.686 129.611 713.636 128.911 710.886 128.911H674.381C671.89 128.911 669.919 129.689 668.466 131.246C667.013 132.751 666.286 134.671 666.286 137.006V164.404C666.286 167.05 666.987 169.074 668.388 170.475C669.789 171.876 671.839 172.577 674.537 172.577H710.886V192.814H674.381C672.461 192.814 670.438 192.606 668.31 192.191C666.182 191.724 664.055 191.024 661.927 190.09C659.852 189.156 657.854 187.962 655.934 186.509C654.014 185.004 652.328 183.214 650.875 181.139C649.422 179.011 648.254 176.572 647.372 173.822C646.49 171.02 646.049 167.881 646.049 164.404V137.006C646.049 135.086 646.257 133.062 646.672 130.935C647.139 128.807 647.839 126.705 648.773 124.63C649.707 122.502 650.901 120.479 652.354 118.559C653.859 116.639 655.649 114.952 657.724 113.499C659.852 112.046 662.291 110.879 665.041 109.997C667.791 109.115 670.905 108.674 674.381 108.674H710.886C712.806 108.674 714.83 108.907 716.957 109.374C719.137 109.789 721.264 110.464 723.34 111.398C725.467 112.332 727.491 113.551 729.411 115.056C731.331 116.509 733.017 118.299 734.47 120.427C735.923 122.502 737.091 124.915 737.973 127.665C738.855 130.416 739.296 133.529 739.296 137.006V200.909ZM848.344 136.539C848.344 139.341 847.851 142.376 846.865 145.646C845.879 148.863 844.271 151.872 842.039 154.674C839.86 157.425 836.98 159.734 833.4 161.602C829.871 163.47 825.564 164.404 820.479 164.404H783.974V145.178H820.479C823.229 145.178 825.357 144.348 826.861 142.688C828.366 140.975 829.119 138.874 829.119 136.383C829.119 133.737 828.262 131.661 826.55 130.156C824.89 128.651 822.866 127.899 820.479 127.899H783.974C781.224 127.899 779.096 128.755 777.591 130.468C776.087 132.128 775.334 134.204 775.334 136.694V164.949C775.334 167.647 776.164 169.749 777.825 171.253C779.537 172.758 781.639 173.511 784.13 173.511H820.479V192.814H783.974C781.172 192.814 778.136 192.321 774.867 191.335C771.65 190.349 768.64 188.767 765.838 186.587C763.088 184.356 760.779 181.476 758.911 177.947C757.043 174.367 756.109 170.034 756.109 164.949V136.539C756.109 133.737 756.602 130.727 757.588 127.51C758.574 124.241 760.156 121.231 762.336 118.481C764.567 115.679 767.447 113.344 770.975 111.476C774.556 109.608 778.889 108.674 783.974 108.674H820.479C823.281 108.674 826.291 109.166 829.508 110.152C832.777 111.138 835.787 112.747 838.537 114.978C841.339 117.158 843.674 120.038 845.542 123.618C847.41 127.147 848.344 131.453 848.344 136.539Z" fill="white"/>
<path d="M101.031 200.909C101.031 204.386 100.59 207.499 99.7076 210.249C98.8254 213.051 97.6579 215.49 96.205 217.566C94.752 219.693 93.0656 221.483 91.1456 222.936C89.2257 224.441 87.202 225.661 85.0745 226.595C82.9988 227.529 80.8713 228.203 78.6919 228.618C76.5644 229.085 74.5407 229.319 72.6207 229.319H36.1158V209.082H72.6207C75.3709 209.082 77.4206 208.381 78.7698 206.98C80.1189 205.579 80.7935 203.555 80.7935 200.909V137.006C80.7935 134.359 80.1189 132.362 78.7698 131.012C77.4206 129.611 75.3709 128.911 72.6207 128.911H36.1158C33.625 128.911 31.6532 129.689 30.2003 131.246C28.7473 132.751 28.0209 134.671 28.0209 137.006V164.404C28.0209 167.05 28.7214 169.074 30.1224 170.475C31.5235 171.876 33.5731 172.577 36.2715 172.577H72.6207V192.814H36.1158C34.1958 192.814 32.1721 192.606 30.0446 192.191C27.9171 191.724 25.7896 191.024 23.6621 190.09C21.5864 189.156 19.5887 187.962 17.6687 186.509C15.7488 185.004 14.0623 183.214 12.6094 181.139C11.1565 179.011 9.98892 176.572 9.10678 173.822C8.22464 171.02 7.78357 167.881 7.78357 164.404V137.006C7.78357 135.086 7.99114 133.062 8.40626 130.935C8.87327 128.807 9.5738 126.705 10.5078 124.63C11.4419 122.502 12.6353 120.479 14.0883 118.559C15.5931 116.639 17.3833 114.952 19.4589 113.499C21.5864 112.046 24.0253 110.879 26.7755 109.997C29.5257 109.115 32.6391 108.674 36.1158 108.674H72.6207C74.5407 108.674 76.5644 108.907 78.6919 109.374C80.8713 109.789 82.9988 110.464 85.0745 111.398C87.202 112.332 89.2257 113.551 91.1456 115.056C93.0656 116.509 94.752 118.299 96.205 120.427C97.6579 122.502 98.8254 124.915 99.7076 127.665C100.59 130.416 101.031 133.529 101.031 137.006V200.909ZM193.188 128.911H147.654C144.904 128.911 142.829 129.611 141.428 131.012C140.026 132.362 139.326 134.359 139.326 137.006V192.814H119.089V137.006C119.089 133.529 119.53 130.416 120.412 127.665C121.294 124.915 122.462 122.502 123.914 120.427C125.419 118.299 127.132 116.509 129.052 115.056C130.972 113.551 132.969 112.332 135.045 111.398C137.173 110.464 139.3 109.789 141.428 109.374C143.607 108.907 145.631 108.674 147.499 108.674H193.188V128.911ZM286.903 164.949C286.903 167.751 286.41 170.786 285.424 174.056C284.438 177.273 282.829 180.282 280.598 183.084C278.418 185.835 275.539 188.144 271.958 190.012C268.43 191.88 264.123 192.814 259.037 192.814H222.532C219.73 192.814 216.695 192.321 213.426 191.335C210.208 190.349 207.199 188.767 204.397 186.587C201.646 184.356 199.337 181.476 197.469 177.947C195.601 174.367 194.667 170.034 194.667 164.949C194.667 162.147 195.16 159.111 196.146 155.842C197.132 152.573 198.715 149.563 200.894 146.813C203.125 144.011 206.005 141.676 209.534 139.808C213.114 137.94 217.447 137.006 222.532 137.006H259.037V156.309H222.532C219.782 156.309 217.655 157.165 216.15 158.878C214.645 160.538 213.893 162.614 213.893 165.104C213.893 167.751 214.749 169.826 216.461 171.331C218.225 172.784 220.301 173.511 222.688 173.511H259.037C261.788 173.511 263.915 172.68 265.42 171.02C266.925 169.359 267.677 167.284 267.677 164.793V136.539C267.677 133.892 266.847 131.791 265.186 130.234C263.578 128.677 261.528 127.899 259.037 127.899H214.593V108.674H259.037C261.839 108.674 264.849 109.166 268.066 110.152C271.335 111.138 274.345 112.747 277.095 114.978C279.897 117.158 282.232 120.038 284.1 123.618C285.969 127.147 286.903 131.453 286.903 136.539V164.949ZM396.495 164.404C396.495 167.881 396.054 171.02 395.172 173.822C394.29 176.572 393.122 179.011 391.669 181.139C390.216 183.214 388.53 185.004 386.61 186.509C384.69 187.962 382.666 189.156 380.539 190.09C378.463 191.024 376.336 191.724 374.156 192.191C372.029 192.606 370.005 192.814 368.085 192.814H331.58C328.104 192.814 324.99 192.373 322.24 191.491C319.49 190.609 317.051 189.441 314.923 187.988C312.848 186.483 311.058 184.771 309.553 182.851C308.1 180.931 306.906 178.933 305.972 176.858C305.038 174.73 304.338 172.603 303.871 170.475C303.456 168.296 303.248 166.272 303.248 164.404V137.006C303.248 131.817 304.182 127.432 306.05 123.852C307.97 120.219 310.331 117.287 313.133 115.056C315.987 112.773 319.075 111.138 322.396 110.152C325.717 109.166 328.778 108.674 331.58 108.674H368.085V128.911H331.736C329.038 128.911 326.988 129.611 325.587 131.012C324.186 132.362 323.485 134.359 323.485 137.006V164.248C323.485 166.998 324.16 169.074 325.509 170.475C326.91 171.876 328.934 172.577 331.58 172.577H368.085C370.835 172.577 372.885 171.876 374.234 170.475C375.583 169.074 376.258 167.05 376.258 164.404V73.1026H396.495V164.404Z" fill="white"/>
<path d="M617.472 0L630.759 13.2872L602.444 41.6021L579.235 18.3931L536.24 61.4458L544.421 69.627L579.235 34.8135L602.444 58.0225L638.998 21.5263L652.285 34.8135V0H617.472Z" fill="white"/>
<path d="M123.626 227.829C122.474 228.329 121.322 228.579 120.17 228.579C118.497 228.579 117.225 228.111 116.356 227.177C115.508 226.221 115.084 224.829 115.084 223.004V214.82H111.922V212.245H115.084V207.908L118.084 207.582V212.245H122.974V214.82H118.084V222.938C118.084 223.917 118.279 224.656 118.67 225.155C119.062 225.655 119.681 225.905 120.529 225.905C121.203 225.905 121.931 225.721 122.713 225.351L123.626 227.829ZM128.264 228.351V205.528H131.296V210.843C131.296 212.625 131.22 214.038 131.068 215.081H131.133C131.655 214.168 132.426 213.418 133.448 212.832C134.469 212.245 135.61 211.951 136.871 211.951C139.066 211.951 140.74 212.592 141.892 213.875C143.066 215.157 143.653 216.961 143.653 219.287V228.351H140.62V219.548C140.62 218.005 140.251 216.809 139.512 215.961C138.795 215.114 137.719 214.69 136.284 214.69C135.328 214.69 134.469 214.918 133.709 215.375C132.948 215.809 132.35 216.418 131.915 217.2C131.502 217.961 131.296 218.82 131.296 219.776V228.351H128.264ZM164.751 220.102C164.751 220.428 164.729 220.874 164.685 221.439H151.938C152.025 222.83 152.557 223.938 153.535 224.764C154.513 225.59 155.741 226.003 157.219 226.003C158.132 226.003 159.056 225.851 159.991 225.547C160.925 225.221 161.751 224.732 162.468 224.08L164.001 226.166C163.175 227.014 162.142 227.655 160.903 228.09C159.665 228.503 158.415 228.709 157.154 228.709C155.524 228.709 154.079 228.361 152.818 227.666C151.579 226.949 150.612 225.96 149.916 224.699C149.221 223.417 148.873 221.95 148.873 220.298C148.873 218.667 149.221 217.222 149.916 215.961C150.633 214.679 151.622 213.679 152.883 212.962C154.144 212.245 155.589 211.886 157.219 211.886C159.48 211.886 161.295 212.592 162.664 214.005C164.055 215.418 164.751 217.45 164.751 220.102ZM157.089 214.592C155.741 214.592 154.6 214.972 153.666 215.733C152.753 216.472 152.188 217.548 151.97 218.961H161.914C161.827 217.548 161.349 216.472 160.48 215.733C159.632 214.972 158.502 214.592 157.089 214.592ZM194.437 220.102C194.437 220.428 194.416 220.874 194.372 221.439H181.624C181.711 222.83 182.244 223.938 183.222 224.764C184.2 225.59 185.428 226.003 186.906 226.003C187.819 226.003 188.743 225.851 189.677 225.547C190.612 225.221 191.438 224.732 192.155 224.08L193.687 226.166C192.861 227.014 191.829 227.655 190.59 228.09C189.351 228.503 188.101 228.709 186.841 228.709C185.211 228.709 183.765 228.361 182.505 227.666C181.266 226.949 180.298 225.96 179.603 224.699C178.907 223.417 178.56 221.95 178.56 220.298C178.56 218.667 178.907 217.222 179.603 215.961C180.32 214.679 181.309 213.679 182.57 212.962C183.83 212.245 185.276 211.886 186.906 211.886C189.166 211.886 190.981 212.592 192.351 214.005C193.742 215.418 194.437 217.45 194.437 220.102ZM186.776 214.592C185.428 214.592 184.287 214.972 183.352 215.733C182.439 216.472 181.874 217.548 181.657 218.961H191.601C191.514 217.548 191.036 216.472 190.166 215.733C189.319 214.972 188.188 214.592 186.776 214.592ZM206.422 228.709C204.879 228.709 203.499 228.361 202.281 227.666C201.064 226.97 200.108 225.992 199.412 224.732C198.738 223.471 198.402 222.004 198.402 220.33C198.402 218.657 198.738 217.189 199.412 215.929C200.108 214.646 201.053 213.657 202.249 212.962C203.466 212.245 204.835 211.886 206.357 211.886C207.748 211.886 208.965 212.201 210.008 212.832C211.073 213.44 211.856 214.223 212.356 215.179H212.421C212.269 213.766 212.193 212.408 212.193 211.104V205.528H215.225V228.351H212.388V225.449H212.323C211.932 226.34 211.193 227.112 210.106 227.764C209.041 228.394 207.813 228.709 206.422 228.709ZM206.715 225.938C208.324 225.938 209.639 225.427 210.66 224.406C211.682 223.362 212.193 222.015 212.193 220.363C212.193 218.667 211.682 217.298 210.66 216.255C209.661 215.19 208.367 214.657 206.781 214.657C205.759 214.657 204.835 214.896 204.009 215.375C203.205 215.853 202.575 216.516 202.118 217.363C201.662 218.211 201.434 219.167 201.434 220.232C201.434 221.341 201.662 222.33 202.118 223.199C202.575 224.069 203.194 224.743 203.977 225.221C204.781 225.699 205.694 225.938 206.715 225.938ZM229.334 236.371C226.552 236.371 224.042 235.697 221.803 234.35L222.977 231.872C224.281 232.48 225.411 232.915 226.367 233.176C227.324 233.437 228.291 233.567 229.269 233.567C230.856 233.567 232.095 233.176 232.986 232.393C233.899 231.633 234.388 230.546 234.453 229.133C234.518 227.894 234.594 226.677 234.681 225.482H234.616C234.138 226.438 233.388 227.209 232.366 227.796C231.345 228.383 230.139 228.677 228.747 228.677C227.183 228.677 225.791 228.329 224.574 227.633C223.357 226.916 222.412 225.927 221.738 224.666C221.064 223.406 220.727 221.96 220.727 220.33C220.727 218.678 221.064 217.222 221.738 215.961C222.412 214.679 223.346 213.679 224.542 212.962C225.759 212.245 227.15 211.886 228.715 211.886C230.128 211.886 231.367 212.201 232.432 212.832C233.518 213.462 234.257 214.233 234.649 215.146H234.714V212.245H237.55V228.448C237.55 230.948 236.822 232.893 235.366 234.284C233.931 235.675 231.921 236.371 229.334 236.371ZM229.139 225.938C230.725 225.938 232.019 225.427 233.018 224.406C234.018 223.362 234.518 222.004 234.518 220.33C234.518 218.657 234.018 217.298 233.018 216.255C232.04 215.19 230.758 214.657 229.171 214.657C227.585 214.657 226.28 215.179 225.259 216.222C224.259 217.266 223.759 218.602 223.759 220.232C223.759 221.341 223.987 222.33 224.444 223.199C224.9 224.047 225.541 224.721 226.367 225.221C227.193 225.699 228.117 225.938 229.139 225.938ZM258.898 220.102C258.898 220.428 258.877 220.874 258.833 221.439H246.085C246.172 222.83 246.705 223.938 247.683 224.764C248.661 225.59 249.889 226.003 251.367 226.003C252.28 226.003 253.204 225.851 254.138 225.547C255.073 225.221 255.899 224.732 256.616 224.08L258.149 226.166C257.323 227.014 256.29 227.655 255.051 228.09C253.812 228.503 252.563 228.709 251.302 228.709C249.672 228.709 248.226 228.361 246.966 227.666C245.727 226.949 244.76 225.96 244.064 224.699C243.369 223.417 243.021 221.95 243.021 220.298C243.021 218.667 243.369 217.222 244.064 215.961C244.781 214.679 245.77 213.679 247.031 212.962C248.292 212.245 249.737 211.886 251.367 211.886C253.628 211.886 255.443 212.592 256.812 214.005C258.203 215.418 258.898 217.45 258.898 220.102ZM251.237 214.592C249.889 214.592 248.748 214.972 247.813 215.733C246.901 216.472 246.335 217.548 246.118 218.961H256.062C255.975 217.548 255.497 216.472 254.627 215.733C253.78 214.972 252.65 214.592 251.237 214.592ZM282.814 228.709C281.402 228.709 280.152 228.394 279.065 227.764C278 227.112 277.272 226.34 276.881 225.449H276.815C276.794 226.123 276.783 227.09 276.783 228.351H273.946V205.528H276.978V210.843C276.978 212.603 276.902 214.049 276.75 215.179H276.815C277.315 214.223 278.098 213.44 279.163 212.832C280.228 212.201 281.478 211.886 282.912 211.886C284.39 211.886 285.727 212.234 286.922 212.929C288.14 213.625 289.085 214.603 289.759 215.864C290.454 217.124 290.802 218.57 290.802 220.2C290.802 221.873 290.454 223.362 289.759 224.666C289.063 225.949 288.107 226.949 286.89 227.666C285.694 228.361 284.336 228.709 282.814 228.709ZM282.26 225.938C283.89 225.938 285.216 225.416 286.238 224.373C287.259 223.33 287.77 221.971 287.77 220.298C287.77 219.211 287.531 218.244 287.053 217.396C286.596 216.527 285.955 215.853 285.129 215.375C284.303 214.896 283.369 214.657 282.325 214.657C280.76 214.657 279.478 215.19 278.478 216.255C277.478 217.298 276.978 218.646 276.978 220.298C276.978 221.384 277.207 222.362 277.663 223.232C278.119 224.08 278.739 224.743 279.521 225.221C280.326 225.699 281.239 225.938 282.26 225.938ZM310.911 220.102C310.911 220.428 310.889 220.874 310.845 221.439H298.098C298.185 222.83 298.717 223.938 299.695 224.764C300.673 225.59 301.901 226.003 303.379 226.003C304.292 226.003 305.216 225.851 306.151 225.547C307.085 225.221 307.911 224.732 308.628 224.08L310.161 226.166C309.335 227.014 308.302 227.655 307.063 228.09C305.825 228.503 304.575 228.709 303.314 228.709C301.684 228.709 300.239 228.361 298.978 227.666C297.739 226.949 296.772 225.96 296.076 224.699C295.381 223.417 295.033 221.95 295.033 220.298C295.033 218.667 295.381 217.222 296.076 215.961C296.793 214.679 297.782 213.679 299.043 212.962C300.304 212.245 301.749 211.886 303.379 211.886C305.64 211.886 307.455 212.592 308.824 214.005C310.215 215.418 310.911 217.45 310.911 220.102ZM303.249 214.592C301.901 214.592 300.76 214.972 299.826 215.733C298.913 216.472 298.348 217.548 298.13 218.961H308.074C307.987 217.548 307.509 216.472 306.64 215.733C305.792 214.972 304.662 214.592 303.249 214.592ZM323.516 207.713C322.624 207.713 321.929 207.985 321.429 208.528C320.951 209.071 320.712 209.908 320.712 211.038V212.245H325.635V214.886H320.712V228.351H317.68V214.886H314.55V212.245H317.68V211.104C317.68 209.213 318.179 207.745 319.179 206.702C320.201 205.659 321.559 205.137 323.255 205.137C324.646 205.137 325.874 205.452 326.939 206.083L325.896 208.267C325.135 207.898 324.341 207.713 323.516 207.713ZM337.078 228.709C335.447 228.709 333.991 228.351 332.709 227.633C331.448 226.916 330.47 225.927 329.775 224.666C329.079 223.384 328.731 221.95 328.731 220.363C328.731 218.754 329.09 217.309 329.807 216.027C330.524 214.722 331.535 213.712 332.839 212.995C334.143 212.256 335.632 211.886 337.306 211.886C338.936 211.886 340.381 212.245 341.642 212.962C342.924 213.679 343.913 214.679 344.609 215.961C345.304 217.222 345.652 218.646 345.652 220.232C345.652 221.841 345.294 223.297 344.576 224.601C343.859 225.884 342.848 226.894 341.544 227.633C340.24 228.351 338.751 228.709 337.078 228.709ZM337.143 225.938C338.208 225.938 339.153 225.699 339.979 225.221C340.827 224.721 341.479 224.047 341.936 223.199C342.392 222.352 342.62 221.406 342.62 220.363C342.62 219.298 342.392 218.331 341.936 217.461C341.479 216.592 340.838 215.907 340.012 215.407C339.186 214.907 338.251 214.657 337.208 214.657C336.143 214.657 335.198 214.907 334.372 215.407C333.546 215.885 332.904 216.559 332.448 217.429C331.992 218.276 331.763 219.211 331.763 220.232C331.763 221.297 331.992 222.265 332.448 223.134C332.904 224.004 333.535 224.688 334.339 225.188C335.165 225.688 336.1 225.938 337.143 225.938ZM351.118 228.351V212.245H353.954C353.954 213.484 353.932 214.407 353.889 215.016H353.954C354.302 214.146 354.91 213.418 355.78 212.832C356.671 212.245 357.714 211.951 358.91 211.951C359.736 211.951 360.475 212.06 361.127 212.277L360.279 214.983C359.866 214.809 359.334 214.722 358.682 214.722C357.334 214.722 356.236 215.212 355.389 216.19C354.563 217.146 354.15 218.407 354.15 219.972V228.351H351.118ZM379.899 220.102C379.899 220.428 379.878 220.874 379.834 221.439H367.086C367.173 222.83 367.706 223.938 368.684 224.764C369.662 225.59 370.89 226.003 372.368 226.003C373.281 226.003 374.205 225.851 375.139 225.547C376.074 225.221 376.9 224.732 377.617 224.08L379.149 226.166C378.323 227.014 377.291 227.655 376.052 228.09C374.813 228.503 373.563 228.709 372.303 228.709C370.673 228.709 369.227 228.361 367.967 227.666C366.728 226.949 365.76 225.96 365.065 224.699C364.369 223.417 364.022 221.95 364.022 220.298C364.022 218.667 364.369 217.222 365.065 215.961C365.782 214.679 366.771 213.679 368.032 212.962C369.292 212.245 370.738 211.886 372.368 211.886C374.628 211.886 376.443 212.592 377.813 214.005C379.204 215.418 379.899 217.45 379.899 220.102ZM372.238 214.592C370.89 214.592 369.749 214.972 368.814 215.733C367.901 216.472 367.336 217.548 367.119 218.961H377.063C376.976 217.548 376.498 216.472 375.628 215.733C374.781 214.972 373.65 214.592 372.238 214.592ZM405.433 212.245H408.726L400.836 231.904C400.249 233.361 399.543 234.426 398.717 235.099C397.891 235.795 396.902 236.143 395.75 236.143C394.642 236.143 393.588 235.838 392.588 235.23L393.729 232.752C394.272 233.122 394.892 233.306 395.587 233.306C396.174 233.306 396.663 233.122 397.054 232.752C397.446 232.404 397.826 231.785 398.195 230.894L399.076 228.774L392.131 212.245H395.424L398.652 220.167C399.239 221.623 399.902 223.373 400.641 225.416H400.706C400.793 225.177 400.869 224.96 400.934 224.764C400.999 224.569 401.065 224.384 401.13 224.21C401.282 223.754 401.499 223.123 401.782 222.319C402.064 221.493 402.325 220.787 402.564 220.2L405.433 212.245ZM419.923 228.709C418.292 228.709 416.836 228.351 415.554 227.633C414.293 226.916 413.315 225.927 412.62 224.666C411.924 223.384 411.576 221.95 411.576 220.363C411.576 218.754 411.935 217.309 412.652 216.027C413.369 214.722 414.38 213.712 415.684 212.995C416.988 212.256 418.477 211.886 420.151 211.886C421.781 211.886 423.226 212.245 424.487 212.962C425.769 213.679 426.758 214.679 427.454 215.961C428.149 217.222 428.497 218.646 428.497 220.232C428.497 221.841 428.139 223.297 427.421 224.601C426.704 225.884 425.693 226.894 424.389 227.633C423.085 228.351 421.596 228.709 419.923 228.709ZM419.988 225.938C421.053 225.938 421.998 225.699 422.824 225.221C423.672 224.721 424.324 224.047 424.781 223.199C425.237 222.352 425.465 221.406 425.465 220.363C425.465 219.298 425.237 218.331 424.781 217.461C424.324 216.592 423.683 215.907 422.857 215.407C422.031 214.907 421.096 214.657 420.053 214.657C418.988 214.657 418.043 214.907 417.217 215.407C416.391 215.885 415.749 216.559 415.293 217.429C414.837 218.276 414.608 219.211 414.608 220.232C414.608 221.297 414.837 222.265 415.293 223.134C415.749 224.004 416.38 224.688 417.184 225.188C418.01 225.688 418.945 225.938 419.988 225.938ZM440.581 228.644C438.473 228.644 436.799 227.959 435.56 226.59C434.321 225.221 433.702 223.384 433.702 221.08V212.245H436.734V220.982C436.734 222.525 437.125 223.732 437.908 224.601C438.712 225.471 439.809 225.905 441.201 225.905C442.57 225.905 443.689 225.427 444.559 224.471C445.428 223.493 445.863 222.276 445.863 220.819V212.245H448.895V228.351H446.091C446.091 227.133 446.113 226.221 446.156 225.612H446.058C445.537 226.612 444.798 227.372 443.841 227.894C442.907 228.394 441.82 228.644 440.581 228.644ZM455.651 228.351V212.245H458.488C458.488 213.484 458.466 214.407 458.423 215.016H458.488C458.836 214.146 459.444 213.418 460.314 212.832C461.205 212.245 462.248 211.951 463.443 211.951C464.269 211.951 465.008 212.06 465.66 212.277L464.813 214.983C464.4 214.809 463.867 214.722 463.215 214.722C461.868 214.722 460.77 215.212 459.922 216.19C459.096 217.146 458.683 218.407 458.683 219.972V228.351H455.651ZM486.561 236.371C483.779 236.371 481.269 235.697 479.03 234.35L480.204 231.872C481.508 232.48 482.638 232.915 483.594 233.176C484.551 233.437 485.518 233.567 486.496 233.567C488.083 233.567 489.322 233.176 490.213 232.393C491.126 231.633 491.615 230.546 491.68 229.133C491.745 227.894 491.821 226.677 491.908 225.482H491.843C491.365 226.438 490.615 227.209 489.593 227.796C488.572 228.383 487.366 228.677 485.975 228.677C484.41 228.677 483.018 228.329 481.801 227.633C480.584 226.916 479.639 225.927 478.965 224.666C478.291 223.406 477.954 221.96 477.954 220.33C477.954 218.678 478.291 217.222 478.965 215.961C479.639 214.679 480.573 213.679 481.769 212.962C482.986 212.245 484.377 211.886 485.942 211.886C487.355 211.886 488.594 212.201 489.659 212.832C490.745 213.462 491.484 214.233 491.876 215.146H491.941V212.245H494.777V228.448C494.777 230.948 494.049 232.893 492.593 234.284C491.158 235.675 489.148 236.371 486.561 236.371ZM486.366 225.938C487.952 225.938 489.246 225.427 490.246 224.406C491.245 223.362 491.745 222.004 491.745 220.33C491.745 218.657 491.245 217.298 490.246 216.255C489.267 215.19 487.985 214.657 486.398 214.657C484.812 214.657 483.508 215.179 482.486 216.222C481.486 217.266 480.986 218.602 480.986 220.232C480.986 221.341 481.214 222.33 481.671 223.199C482.127 224.047 482.769 224.721 483.594 225.221C484.42 225.699 485.344 225.938 486.366 225.938ZM501.487 228.351V212.245H504.323C504.323 213.484 504.301 214.407 504.258 215.016H504.323C504.671 214.146 505.28 213.418 506.149 212.832C507.04 212.245 508.083 211.951 509.279 211.951C510.105 211.951 510.844 212.06 511.496 212.277L510.648 214.983C510.235 214.809 509.703 214.722 509.051 214.722C507.703 214.722 506.605 215.212 505.758 216.19C504.932 217.146 504.519 218.407 504.519 219.972V228.351H501.487ZM521.142 211.951C523.533 211.951 525.424 212.44 526.815 213.418C528.228 214.396 528.934 215.994 528.934 218.211V228.351H526.293C526.293 227.09 526.315 226.144 526.358 225.514H526.293C525.75 226.514 524.924 227.286 523.815 227.829C522.728 228.351 521.566 228.611 520.327 228.611C518.588 228.611 517.121 228.177 515.925 227.307C514.73 226.416 514.132 225.123 514.132 223.428C514.132 222.276 514.426 221.297 515.012 220.493C515.599 219.689 516.382 219.091 517.36 218.7C518.36 218.287 519.436 218.081 520.588 218.081C522.718 218.081 524.489 218.494 525.902 219.32V218.211C525.902 216.95 525.445 216.037 524.533 215.472C523.62 214.886 522.435 214.592 520.979 214.592C520.218 214.592 519.403 214.69 518.534 214.886C517.664 215.081 516.86 215.331 516.121 215.635L515.338 213.19C517.251 212.364 519.186 211.951 521.142 211.951ZM520.881 226.068C522.207 226.068 523.359 225.699 524.337 224.96C525.315 224.221 525.869 223.199 526 221.895C525.369 221.504 524.598 221.189 523.685 220.95C522.772 220.689 521.924 220.558 521.142 220.558C519.99 220.558 519.033 220.798 518.273 221.276C517.534 221.732 517.164 222.406 517.164 223.297C517.164 224.188 517.534 224.873 518.273 225.351C519.012 225.829 519.881 226.068 520.881 226.068ZM542.158 228.709C540.614 228.709 539.234 228.361 538.017 227.666C536.8 226.97 535.843 225.992 535.148 224.732C534.474 223.471 534.137 222.004 534.137 220.33C534.137 218.657 534.474 217.189 535.148 215.929C535.843 214.646 536.789 213.657 537.984 212.962C539.202 212.245 540.571 211.886 542.092 211.886C543.483 211.886 544.701 212.201 545.744 212.832C546.809 213.44 547.591 214.223 548.091 215.179H548.157C548.004 213.766 547.928 212.408 547.928 211.104V205.528H550.96V228.351H548.124V225.449H548.059C547.667 226.34 546.928 227.112 545.842 227.764C544.777 228.394 543.549 228.709 542.158 228.709ZM542.451 225.938C544.059 225.938 545.374 225.427 546.396 224.406C547.418 223.362 547.928 222.015 547.928 220.363C547.928 218.667 547.418 217.298 546.396 216.255C545.396 215.19 544.103 214.657 542.516 214.657C541.495 214.657 540.571 214.896 539.745 215.375C538.941 215.853 538.31 216.516 537.854 217.363C537.398 218.211 537.169 219.167 537.169 220.232C537.169 221.341 537.398 222.33 537.854 223.199C538.31 224.069 538.93 224.743 539.712 225.221C540.517 225.699 541.429 225.938 542.451 225.938ZM564.32 228.644C562.212 228.644 560.538 227.959 559.299 226.59C558.06 225.221 557.441 223.384 557.441 221.08V212.245H560.473V220.982C560.473 222.525 560.864 223.732 561.647 224.601C562.451 225.471 563.548 225.905 564.939 225.905C566.309 225.905 567.428 225.427 568.298 224.471C569.167 223.493 569.602 222.276 569.602 220.819V212.245H572.634V228.351H569.83C569.83 227.133 569.852 226.221 569.895 225.612H569.797C569.276 226.612 568.537 227.372 567.58 227.894C566.646 228.394 565.559 228.644 564.32 228.644ZM584.998 211.951C587.389 211.951 589.28 212.44 590.671 213.418C592.084 214.396 592.79 215.994 592.79 218.211V228.351H590.149C590.149 227.09 590.171 226.144 590.215 225.514H590.149C589.606 226.514 588.78 227.286 587.671 227.829C586.585 228.351 585.422 228.611 584.183 228.611C582.444 228.611 580.977 228.177 579.782 227.307C578.586 226.416 577.988 225.123 577.988 223.428C577.988 222.276 578.282 221.297 578.869 220.493C579.456 219.689 580.238 219.091 581.216 218.7C582.216 218.287 583.292 218.081 584.444 218.081C586.574 218.081 588.345 218.494 589.758 219.32V218.211C589.758 216.95 589.302 216.037 588.389 215.472C587.476 214.886 586.291 214.592 584.835 214.592C584.074 214.592 583.259 214.69 582.39 214.886C581.52 215.081 580.716 215.331 579.977 215.635L579.195 213.19C581.107 212.364 583.042 211.951 584.998 211.951ZM584.737 226.068C586.063 226.068 587.215 225.699 588.193 224.96C589.171 224.221 589.725 223.199 589.856 221.895C589.226 221.504 588.454 221.189 587.541 220.95C586.628 220.689 585.781 220.558 584.998 220.558C583.846 220.558 582.89 220.798 582.129 221.276C581.39 221.732 581.02 222.406 581.02 223.297C581.02 224.188 581.39 224.873 582.129 225.351C582.868 225.829 583.737 226.068 584.737 226.068ZM609.215 227.829C608.063 228.329 606.911 228.579 605.759 228.579C604.085 228.579 602.814 228.111 601.945 227.177C601.097 226.221 600.673 224.829 600.673 223.004V214.82H597.511V212.245H600.673V207.908L603.672 207.582V212.245H608.563V214.82H603.672V222.938C603.672 223.917 603.868 224.656 604.259 225.155C604.651 225.655 605.27 225.905 606.118 225.905C606.792 225.905 607.52 225.721 608.302 225.351L609.215 227.829ZM615.32 209.473C614.733 209.473 614.244 209.289 613.853 208.919C613.483 208.528 613.299 208.05 613.299 207.485C613.299 206.898 613.483 206.42 613.853 206.05C614.244 205.659 614.733 205.463 615.32 205.463C615.929 205.463 616.428 205.659 616.82 206.05C617.211 206.42 617.407 206.898 617.407 207.485C617.407 208.05 617.211 208.528 616.82 208.919C616.428 209.289 615.929 209.473 615.32 209.473ZM616.885 228.351H613.853V212.245H616.885V228.351ZM630.741 228.709C629.111 228.709 627.655 228.351 626.372 227.633C625.112 226.916 624.134 225.927 623.438 224.666C622.743 223.384 622.395 221.95 622.395 220.363C622.395 218.754 622.753 217.309 623.471 216.027C624.188 214.722 625.199 213.712 626.503 212.995C627.807 212.256 629.296 211.886 630.969 211.886C632.6 211.886 634.045 212.245 635.306 212.962C636.588 213.679 637.577 214.679 638.273 215.961C638.968 217.222 639.316 218.646 639.316 220.232C639.316 221.841 638.957 223.297 638.24 224.601C637.523 225.884 636.512 226.894 635.208 227.633C633.904 228.351 632.415 228.709 630.741 228.709ZM630.806 225.938C631.871 225.938 632.817 225.699 633.643 225.221C634.491 224.721 635.143 224.047 635.599 223.199C636.056 222.352 636.284 221.406 636.284 220.363C636.284 219.298 636.056 218.331 635.599 217.461C635.143 216.592 634.501 215.907 633.675 215.407C632.85 214.907 631.915 214.657 630.872 214.657C629.807 214.657 628.861 214.907 628.035 215.407C627.209 215.885 626.568 216.559 626.112 217.429C625.655 218.276 625.427 219.211 625.427 220.232C625.427 221.297 625.655 222.265 626.112 223.134C626.568 224.004 627.198 224.688 628.003 225.188C628.829 225.688 629.763 225.938 630.806 225.938ZM644.781 228.351V212.245H647.618C647.618 213.071 647.585 214.07 647.52 215.244H647.618C648.096 214.179 648.835 213.364 649.835 212.799C650.835 212.234 652.019 211.951 653.388 211.951C655.584 211.951 657.257 212.592 658.409 213.875C659.583 215.157 660.17 216.961 660.17 219.287V228.351H657.138V219.548C657.138 218.005 656.768 216.809 656.029 215.961C655.312 215.114 654.236 214.69 652.802 214.69C651.845 214.69 650.987 214.918 650.226 215.375C649.465 215.809 648.867 216.418 648.433 217.2C648.02 217.961 647.813 218.82 647.813 219.776V228.351H644.781Z" fill="white"/>
</svg>
